# Blender v2.80 (sub 54) OBJ File: 'Seaweed.blend'
# www.blender.org
mtllib Seaweed.mtl
o Seaweed
v -0.654084 1.877963 0.165281
v 0.968436 2.000000 0.841232
v -0.231194 0.025837 0.245112
v 0.696088 0.006194 0.543344
v -0.066076 2.284540 0.583465
v 0.021700 0.000000 0.346098
v -0.792576 1.900107 -0.085217
v 0.214510 1.809375 -0.615673
v -0.330491 -0.018230 0.010321
v 0.274848 -0.029934 -0.077849
v -0.070220 2.249519 -0.137920
v -0.055218 -0.009572 -0.036265
v 0.655639 2.415517 -0.762700
v 1.257424 2.456893 0.101787
v 0.388375 -0.019598 -0.236678
v 0.508832 -0.041193 0.214050
v 1.174118 2.755741 -0.357797
v 0.323385 -0.009572 0.010725
v 0.502256 1.157526 -0.546989
v 0.629775 1.369129 0.150725
v 0.523978 1.423909 -0.144754
vt 0.623567 0.470963
vt 0.803063 0.081030
vt 0.815465 0.489566
vt 0.990311 0.453911
vt 0.919970 0.081030
vt 0.259985 0.920520
vt 0.369008 0.508884
vt 0.384510 0.920520
vt 0.509036 0.920520
vt 0.416741 0.508884
vt 0.826611 0.688349
vt 0.899175 0.505784
vt 0.901888 0.713152
vt 0.972128 0.646106
vt 0.946908 0.505784
vt 0.997348 0.786428
vt 0.801778 0.870914
vt 0.904601 0.920520
vt 0.686157 0.081030
vt 0.321276 0.508884
vt 0.851443 0.505784
vn 0.2704 0.1088 -0.9565
vn 0.3429 0.0845 -0.9355
vn 0.3861 0.1100 -0.9158
vn 0.5156 0.1036 -0.8505
vn 0.3745 0.0456 -0.9261
vn -0.8349 -0.0508 -0.5481
vn -0.2112 -0.1685 -0.9628
vn -0.4819 -0.0426 -0.8752
vn -0.0594 -0.0485 -0.9970
vn -0.1635 -0.0883 -0.9826
vn 0.8652 -0.3128 -0.3918
vn 0.9582 -0.0878 -0.2723
vn 0.9379 -0.2645 -0.2245
vn 0.9915 -0.1214 0.0451
vn 0.9666 -0.0263 0.2550
vn 0.7945 -0.3936 -0.4623
vn 0.7823 -0.4536 -0.4268
vn 0.7509 -0.4447 -0.4882
vn 0.2783 0.1046 -0.9548
vn -0.1370 -0.2821 -0.9495
vn 0.7284 -0.0929 -0.6788
g Wind
g Seaweed_Seaweed_Seaweed
usemtl Seaweed
s 1
f 2/1/1 6/2/2 5/3/3
g Ground
f 1/4/4 6/2/2 3/5/5
g Wind
f 8/6/6 12/7/7 11/8/8
g Ground
f 7/9/9 12/7/7 9/10/10
g Wind
f 20/11/11 18/12/12 21/13/13
g Ground
f 19/14/14 18/12/12 15/15/15
g Wind
f 13/16/16 21/13/13 19/14/14
f 14/17/17 21/13/13 17/18/18
g Ground
f 2/1/1 4/19/19 6/2/2
g Wind
f 1/4/4 5/3/3 6/2/2
g Ground
f 8/6/6 10/20/20 12/7/7
g Wind
f 7/9/9 11/8/8 12/7/7
g Ground
f 20/11/11 16/21/21 18/12/12
g Wind
f 19/14/14 21/13/13 18/12/12
f 13/16/16 17/18/18 21/13/13
f 14/17/17 20/11/11 21/13/13
